<svg width="238" height="82" viewBox="0 0 238 82" fill="none" xmlns="http://www.w3.org/2000/svg">
<path d="M20.808 48.524C20.844 48.524 20.916 48.524 20.952 48.524C21.348 48.524 21.96 49.1 21.96 49.424C21.96 49.496 21.924 49.568 21.852 49.568C19.188 50.648 16.704 51.836 14.472 53.06C13.284 55.688 8.712 64.724 5.22 64.724C5.004 64.724 4.824 64.688 4.608 64.616C3.564 64.256 2.556 63.464 2.412 62.384C2.412 62.312 2.412 62.204 2.412 62.132C2.412 58.64 10.44 53.672 13.32 52.052C13.644 51.296 14.004 50.468 14.364 49.604C11.88 51.944 7.74 54.968 4.572 54.968C3.456 54.968 2.448 54.428 1.656 53.636C0.612 52.592 0 50.9 0 48.884C0 48.596 0 48.308 0.036 48.02C0.468 42.764 4.788 36.32 10.008 34.772C10.764 34.556 11.556 34.448 12.276 34.448C15.408 34.448 17.928 36.392 17.928 39.308C17.928 40.28 17.64 41.324 17.028 42.476C16.992 42.548 16.92 42.548 16.848 42.548C16.452 42.548 15.804 42.008 15.804 41.684C15.804 41.648 15.804 41.576 15.804 41.576C16.416 40.46 16.668 39.452 16.668 38.588C16.668 38.48 16.668 38.372 16.668 38.264C16.488 36.212 14.904 35.528 13.176 35.528C12.456 35.528 11.7 35.636 11.016 35.852C5.976 37.328 1.728 43.664 1.296 48.776C1.26 49.1 1.224 49.388 1.224 49.676C1.224 51.368 1.656 52.628 2.376 53.348C2.736 53.744 3.276 53.888 3.888 53.888C7.668 53.888 15.12 47.588 16.02 45.212C16.128 45.068 16.236 45.032 16.38 45.032C16.812 45.032 17.316 45.428 17.316 45.86C17.316 45.932 17.28 45.968 17.244 46.04C16.632 47.696 16.056 49.316 15.372 50.972C17.1 50.108 18.9 49.28 20.808 48.524ZM12.204 54.356C10.692 55.292 3.492 60.476 3.492 62.744C3.492 63.14 3.708 63.428 4.212 63.608C4.356 63.644 4.464 63.68 4.608 63.68C7.092 63.68 11.16 56.444 12.204 54.356ZM20.0365 46.184C20.0725 46.112 20.1445 46.076 20.2525 46.076C20.6125 46.076 21.2965 46.616 21.2965 46.976C21.2965 47.012 21.2965 47.048 21.2605 47.084C20.7925 48.092 19.5685 50.864 19.5685 52.376C19.5685 52.592 19.5685 52.772 19.6045 52.916C19.6405 52.916 19.6405 52.916 19.6765 52.916C21.3325 52.916 24.3205 49.712 25.2565 48.56C25.2925 48.524 25.3645 48.488 25.4005 48.488C25.6885 48.488 26.1925 49.136 26.1925 49.496C26.1925 49.568 26.1925 49.64 26.1565 49.676C25.0765 51.008 22.4125 53.996 20.3965 53.996C20.2525 53.996 20.0725 53.96 19.9285 53.924C19.3885 53.78 18.8845 53.384 18.6325 52.916C18.4165 52.592 18.3445 52.16 18.3445 51.656C18.3445 49.856 19.4965 47.372 20.0365 46.184ZM22.0165 45.392C21.9805 45.464 21.9085 45.5 21.8005 45.5C21.4405 45.5 20.7565 44.96 20.7565 44.6C20.7565 44.564 20.7925 44.528 20.7925 44.492L22.2685 42.152C22.3045 42.08 22.3765 42.044 22.4845 42.044C22.8445 42.044 23.5285 42.584 23.5285 42.944C23.5285 42.98 23.4925 43.016 23.4925 43.052L22.0165 45.392ZM24.9289 45.896C24.9649 45.86 25.0369 45.824 25.1089 45.824C25.4689 45.824 26.1529 46.364 26.1529 46.724C26.1529 46.76 26.1169 46.796 26.1169 46.832C25.3969 47.876 23.8849 50.36 23.8849 51.836C23.8849 51.944 23.8849 52.052 23.9209 52.16C25.4689 51.62 28.2409 47.948 29.1769 46.58C29.2849 46.436 29.3929 46.4 29.5369 46.4C29.9329 46.4 30.4729 46.976 30.4729 47.3C30.4729 47.372 30.4369 47.408 30.4009 47.444C30.2569 47.876 29.6089 50.324 29.6089 51.512C29.6089 51.836 29.6449 52.052 29.7529 52.124C29.8609 52.196 30.0049 52.232 30.1489 52.232C31.6609 52.232 35.1529 49.496 35.8729 48.632C35.9089 48.596 35.9809 48.56 36.0529 48.56C36.3769 48.56 36.9889 49.1 36.9889 49.424C36.9889 49.496 36.9529 49.532 36.9529 49.568C35.8729 50.864 32.9929 53.204 30.8329 53.204C30.3649 53.204 29.9329 53.096 29.5729 52.844C28.7809 52.34 28.3849 51.548 28.3849 50.396C28.3849 50.324 28.3849 50.216 28.3849 50.144C27.4129 51.26 25.8649 52.952 24.8569 53.24C24.7489 53.276 24.6409 53.312 24.5329 53.312C24.0289 53.312 23.5609 52.988 23.2009 52.628C22.8409 52.196 22.6969 51.692 22.6969 51.116C22.6969 49.316 24.1369 47.012 24.9289 45.896ZM36.1837 44.636C36.2557 44.6 36.2917 44.564 36.3637 44.564C36.7597 44.564 37.3717 45.176 37.3717 45.5C37.3717 45.572 37.3717 45.608 37.2997 45.644C35.8237 46.508 35.1397 47.228 35.1397 48.2C35.1397 48.776 35.3557 49.46 35.7877 50.288C37.2637 49.64 39.0637 49.028 41.0437 48.596C41.0797 48.56 41.1157 48.56 41.1517 48.56C41.5837 48.56 42.1957 49.172 42.1957 49.496C42.1957 49.568 42.1237 49.64 42.0157 49.676C39.8197 50.18 37.8757 50.828 36.3277 51.548C36.3997 51.728 36.3997 51.944 36.3997 52.124C36.3997 52.916 35.8957 53.708 34.2037 54.464C33.7717 54.644 33.4117 54.788 33.0517 54.788C32.6197 54.788 32.2597 54.572 31.8637 53.924C31.7917 53.744 31.7557 53.6 31.7557 53.456C31.7197 52.268 34.1317 51.08 34.9597 50.648C34.3837 49.532 33.8077 48.524 33.8077 47.588C33.8077 46.616 34.3837 45.68 36.1837 44.636ZM33.6637 53.168C34.1677 52.916 34.4917 52.664 34.7437 52.412C34.3477 52.628 33.9877 52.88 33.6637 53.168ZM39.5077 51.44C39.3277 51.512 39.1837 51.872 39.1837 52.232C39.1837 52.556 39.2917 52.88 39.5797 52.988C39.7957 53.06 40.0117 53.06 40.2637 53.06C42.7117 53.06 46.7797 50.036 48.3278 48.668C48.3637 48.632 48.3998 48.632 48.4717 48.632C48.8318 48.632 49.4078 49.244 49.4078 49.64C49.4078 49.712 49.3717 49.748 49.3357 49.784C49.2997 49.82 44.3677 54.14 41.0197 54.14C40.8397 54.14 40.6957 54.14 40.5517 54.14C38.7517 53.888 38.0677 52.916 38.0677 51.728C38.0677 49.388 40.6597 46.256 42.5677 46.148C42.6037 46.148 42.6397 46.148 42.6397 46.148C43.5397 46.148 44.4397 46.94 44.4397 47.84C44.4397 48.056 44.3677 48.272 44.2597 48.488C43.3597 50 39.5077 51.44 39.5077 51.44ZM40.4797 49.496C41.4877 48.992 42.9277 48.092 43.1437 47.3C42.3157 47.516 41.2357 48.524 40.4797 49.496ZM48.1812 44.168C48.2172 44.06 48.2892 44.024 48.3972 44.024C48.7932 44.024 49.5492 44.672 49.4412 45.032C49.4052 45.032 48.5412 47.408 47.4252 50.468C47.4972 50.432 47.6052 50.36 47.7132 50.324C47.7492 50.252 49.6932 46.292 50.6292 45.608C50.7732 45.536 50.9172 45.5 51.0612 45.5C51.7452 45.5 52.6812 46.292 52.9692 46.76C53.1852 47.192 53.2932 47.696 53.2932 48.236C53.2932 48.38 53.2932 48.56 53.2572 48.74C54.8052 48.488 56.0292 48.344 56.0292 48.344C56.0652 48.344 56.0652 48.344 56.1012 48.344C56.5332 48.344 57.1092 48.92 57.1092 49.244C57.1092 49.352 57.0732 49.424 56.9292 49.424C56.9292 49.424 55.0572 49.64 52.9332 50C52.3212 51.656 50.8452 53.672 49.0092 53.672C48.6132 53.672 48.2172 53.564 47.8212 53.384C46.7052 55.652 45.5532 58.136 44.6172 60.152C43.7172 61.988 43.0332 63.5 42.5652 64.112C42.5652 64.112 42.5652 64.112 42.5652 64.148C42.5652 64.184 42.5292 64.184 42.4932 64.184C42.3852 64.364 42.2772 64.436 42.2052 64.4C41.5932 64.256 41.3052 63.968 41.3052 63.572C41.3052 63.5 41.3052 63.428 41.3052 63.32C41.8452 61.232 48.1812 44.204 48.1812 44.168ZM49.8372 49.532C50.4492 49.352 51.0972 49.208 51.7452 49.064C51.8532 48.74 52.0332 47.984 52.0332 47.408C52.0332 47.048 51.9612 46.724 51.7812 46.616C51.4932 46.616 49.9452 49.316 49.8372 49.532ZM49.1172 50.864C48.8292 51.404 48.5412 52.016 48.2172 52.628C49.3692 52.628 50.5572 51.26 51.1332 50.36C50.4132 50.504 49.6932 50.684 49.1172 50.864ZM55.6273 44.168C55.6633 44.06 55.7353 44.024 55.8433 44.024C56.2393 44.024 56.9953 44.672 56.8873 45.032C56.8513 45.032 55.9873 47.408 54.8713 50.468C54.9433 50.432 55.0513 50.36 55.1593 50.324C55.1953 50.252 57.1393 46.292 58.0753 45.608C58.2193 45.536 58.3633 45.5 58.5073 45.5C59.1913 45.5 60.1273 46.292 60.4153 46.76C60.6313 47.192 60.7393 47.696 60.7393 48.236C60.7393 48.38 60.7393 48.56 60.7033 48.74C62.2513 48.488 63.4753 48.344 63.4753 48.344C63.5113 48.344 63.5113 48.344 63.5473 48.344C63.9793 48.344 64.5553 48.92 64.5553 49.244C64.5553 49.352 64.5193 49.424 64.3753 49.424C64.3753 49.424 62.5033 49.64 60.3793 50C59.7673 51.656 58.2913 53.672 56.4553 53.672C56.0593 53.672 55.6633 53.564 55.2673 53.384C54.1513 55.652 52.9993 58.136 52.0633 60.152C51.1633 61.988 50.4793 63.5 50.0113 64.112C50.0113 64.112 50.0113 64.112 50.0113 64.148C50.0113 64.184 49.9753 64.184 49.9393 64.184C49.8313 64.364 49.7233 64.436 49.6513 64.4C49.0393 64.256 48.7513 63.968 48.7513 63.572C48.7513 63.5 48.7513 63.428 48.7513 63.32C49.2913 61.232 55.6273 44.204 55.6273 44.168ZM57.2833 49.532C57.8953 49.352 58.5433 49.208 59.1913 49.064C59.2993 48.74 59.4793 47.984 59.4793 47.408C59.4793 47.048 59.4073 46.724 59.2273 46.616C58.9393 46.616 57.3913 49.316 57.2833 49.532ZM56.5633 50.864C56.2753 51.404 55.9873 52.016 55.6633 52.628C56.8153 52.628 58.0033 51.26 58.5793 50.36C57.8593 50.504 57.1393 50.684 56.5633 50.864ZM61.7054 51.44C61.5254 51.512 61.3814 51.872 61.3814 52.232C61.3814 52.556 61.4894 52.88 61.7774 52.988C61.9934 53.06 62.2094 53.06 62.4614 53.06C64.9094 53.06 68.9774 50.036 70.5254 48.668C70.5614 48.632 70.5974 48.632 70.6694 48.632C71.0294 48.632 71.6054 49.244 71.6054 49.64C71.6054 49.712 71.5694 49.748 71.5334 49.784C71.4974 49.82 66.5654 54.14 63.2174 54.14C63.0374 54.14 62.8934 54.14 62.7494 54.14C60.9494 53.888 60.2654 52.916 60.2654 51.728C60.2654 49.388 62.8574 46.256 64.7654 46.148C64.8014 46.148 64.8374 46.148 64.8374 46.148C65.7374 46.148 66.6374 46.94 66.6374 47.84C66.6374 48.056 66.5654 48.272 66.4574 48.488C65.5574 50 61.7054 51.44 61.7054 51.44ZM62.6774 49.496C63.6854 48.992 65.1254 48.092 65.3414 47.3C64.5134 47.516 63.4334 48.524 62.6774 49.496ZM86.6869 38.48C86.7229 38.408 86.7949 38.372 86.8669 38.372C87.2629 38.372 87.9109 38.912 87.9109 39.272C87.9109 39.308 87.9109 39.344 87.8749 39.38C87.8749 39.416 84.6709 44.276 81.2149 49.136C86.0389 48.308 97.7749 44.456 98.6749 38.732C98.7109 38.48 98.7469 38.264 98.7469 38.048C98.7469 35.384 96.0829 34.628 93.0949 34.628C90.2509 34.628 87.0829 35.312 85.6789 35.672C81.7549 39.416 78.2269 44.78 75.5989 49.496C76.0309 49.532 76.4269 49.532 76.8589 49.532C77.5789 49.532 78.3709 49.496 79.1269 49.424C82.9069 44.168 86.6869 38.48 86.6869 38.48ZM80.2429 50.504C77.9029 53.708 75.3469 57.092 73.6909 58.64C72.8629 59.396 72.3229 59.612 71.9269 59.612C71.3509 59.612 71.1349 59.072 70.9909 59.072C70.9549 59.072 70.9549 59.072 70.9549 59.072C70.7389 58.82 70.6309 58.46 70.6309 58.028C70.6309 55.724 73.0069 51.26 73.5829 50.108C72.4309 49.784 70.7389 48.884 70.7389 47.66C70.7389 47.336 70.8469 46.976 71.1349 46.58C71.7109 45.86 72.8269 45.068 74.7349 44.132C74.9149 44.06 75.3109 44.204 75.5989 44.492C75.8869 44.78 75.9949 45.104 75.8149 45.176C74.1229 46.004 71.9989 47.264 71.9989 48.308C71.9989 48.956 73.5829 49.208 74.0149 49.316C76.3189 45.032 79.4869 40.136 82.7269 36.572C81.2149 37.076 69.2629 41.936 69.2629 45.068C69.2629 45.392 69.3709 45.68 69.6229 45.968C69.9109 46.256 69.9829 46.544 69.7669 46.616C69.7309 46.616 69.6949 46.616 69.6589 46.616C69.1189 46.616 68.1469 45.644 68.1469 44.528C68.1469 44.456 68.1469 44.42 68.1469 44.348C68.5789 40.064 80.6389 35.708 84.5269 34.7C84.5629 34.664 86.4709 32.756 88.5229 31.712C88.5589 31.712 88.5949 31.676 88.6669 31.676C89.0629 31.676 89.6749 32.288 89.6749 32.612C89.6749 32.684 89.6749 32.72 89.6029 32.756C88.9549 33.08 88.3069 33.512 87.6229 34.016C88.9549 33.764 90.5749 33.548 92.1949 33.548C95.0749 33.548 97.9909 34.196 99.3589 36.608C99.7909 37.364 99.9709 38.156 99.9709 38.876C99.9709 41.972 96.5149 44.6 93.8149 46.148C89.8909 48.344 84.7429 50 80.2429 50.504ZM78.2629 50.612C78.0469 50.648 77.8309 50.648 77.6149 50.648C76.7149 50.648 75.8869 50.576 75.0949 50.468C73.2949 53.888 72.0349 56.804 71.8189 58.244C73.9069 56.768 76.7869 52.664 78.2629 50.612ZM97.1643 50.504C97.1643 50.036 97.5603 49.64 98.0643 49.64C98.5323 49.64 98.9643 50.036 98.9643 50.504C98.9643 51.008 98.5323 51.404 98.0643 51.404C97.5603 51.404 97.1643 51.008 97.1643 50.504Z" fill="#003D7E"/>
<path opacity="0.8" d="M89.4883 13.4524C89.8698 13.6037 90.1925 13.8457 90.4567 14.1784C90.7312 14.5134 90.9189 14.8945 91.0197 15.3217C91.1309 15.7512 91.1373 16.1845 91.0391 16.6216C90.9151 17.1731 90.6624 17.6411 90.2808 18.0254C89.9016 18.3994 89.4121 18.6556 88.8125 18.7942C88.2256 18.9246 87.5679 18.908 86.8394 18.7443L82.7806 17.832L85.2261 6.95148L89.1288 7.82863C89.8677 7.99471 90.4692 8.26111 90.9335 8.62783C91.4 8.98414 91.7166 9.39968 91.8832 9.87444C92.0498 10.3492 92.0747 10.8468 91.9577 11.3671C91.8127 12.0123 91.5153 12.5085 91.0656 12.8557C90.6286 13.1948 90.1028 13.3937 89.4883 13.4524ZM85.5906 11.9695L87.979 12.5064C88.6451 12.6561 89.1953 12.6157 89.6297 12.3854C90.0642 12.1551 90.3434 11.7641 90.4673 11.2125C90.5913 10.6609 90.5062 10.1881 90.2122 9.79404C89.9181 9.39997 89.4276 9.12574 88.7408 8.97136L86.3836 8.44156L85.5906 11.9695ZM86.9777 17.5454C87.6853 17.7045 88.2743 17.6619 88.7447 17.4178C89.215 17.1737 89.5168 16.755 89.6501 16.1618C89.7858 15.5582 89.6841 15.0379 89.345 14.6009C89.0082 14.1535 88.4912 13.8514 87.7939 13.6947L85.3275 13.1403L84.4644 16.9805L86.9777 17.5454ZM92.7919 15.556C92.9884 14.6818 93.3373 13.9567 93.8385 13.3805C94.342 12.794 94.9417 12.3876 95.6376 12.1614C96.3439 11.9375 97.0769 11.9109 97.8366 12.0817C98.5859 12.2501 99.2001 12.5576 99.6792 13.0042C100.158 13.4508 100.478 13.949 100.639 14.499L100.99 12.9379L102.426 13.2607L100.503 21.8153L99.0669 21.4925L99.4247 19.9002C99.0315 20.3366 98.5164 20.6582 97.8796 20.8649C97.2555 21.0635 96.574 21.0798 95.8351 20.9137C95.0754 20.743 94.4306 20.4013 93.9008 19.8886C93.371 19.376 93.0052 18.7416 92.8034 17.9857C92.6016 17.2297 92.5978 16.4198 92.7919 15.556ZM100.032 17.1996C100.177 16.5544 100.173 15.9631 100.02 15.4259C99.8678 14.8887 99.5958 14.445 99.2045 14.0946C98.8259 13.7362 98.3712 13.4974 97.8404 13.3781C97.3096 13.2588 96.7977 13.2749 96.3044 13.4264C95.8112 13.5779 95.3807 13.8638 95.0129 14.2841C94.6451 14.7043 94.3887 15.2371 94.2437 15.8823C94.0964 16.5379 94.0978 17.1396 94.248 17.6872C94.4006 18.2244 94.6662 18.6722 95.0448 19.0306C95.4258 19.3786 95.8816 19.6123 96.4124 19.7316C96.9432 19.8509 97.4552 19.8347 97.9484 19.6832C98.4544 19.5236 98.8912 19.2337 99.259 18.8134C99.6291 18.3828 99.8867 17.8448 100.032 17.1996ZM109.029 14.581C110.07 14.8149 110.842 15.3217 111.344 16.1016C111.849 16.871 111.968 17.849 111.702 19.0354L110.568 24.0776L109.163 23.7618L110.251 18.9225C110.443 18.0692 110.376 17.3708 110.05 16.8274C109.726 16.2735 109.195 15.9136 108.456 15.7475C107.706 15.5791 107.055 15.6788 106.503 16.0465C105.96 16.4166 105.588 17.0491 105.387 17.9441L104.324 22.6741L102.904 22.3549L104.826 13.8003L106.247 14.1196L105.973 15.3372C106.352 14.9632 106.808 14.7104 107.341 14.5786C107.884 14.4492 108.447 14.45 109.029 14.581ZM113.323 20.1869C113.522 19.3023 113.872 18.572 114.373 17.9959C114.877 17.4093 115.482 17.0041 116.188 16.7802C116.904 16.5587 117.669 16.5391 118.48 16.7216C119.532 16.9578 120.338 17.4069 120.9 18.0689C121.472 18.7332 121.766 19.5427 121.781 20.4972L120.251 20.1533C120.222 19.6002 120.028 19.1248 119.67 18.7271C119.321 18.3318 118.835 18.0639 118.21 17.9236C117.399 17.7411 116.68 17.8747 116.054 18.3245C115.43 18.7638 115.004 19.4933 114.775 20.5132C114.543 21.5435 114.614 22.3958 114.987 23.0701C115.361 23.7443 115.953 24.1727 116.765 24.3551C117.389 24.4955 117.942 24.4667 118.424 24.2689C118.906 24.071 119.286 23.7191 119.563 23.213L121.093 23.5569C120.668 24.3796 120.052 24.9791 119.246 25.3555C118.442 25.7215 117.525 25.7887 116.495 25.5571C115.683 25.3747 115 25.03 114.448 24.5231C113.905 24.0185 113.532 23.3934 113.327 22.6478C113.123 21.9022 113.122 21.0819 113.323 20.1869ZM126.07 27.7094C125.269 27.5293 124.582 27.1834 124.008 26.6718C123.444 26.1625 123.05 25.5328 122.825 24.7825C122.613 24.0242 122.606 23.2027 122.805 22.3181C123.002 21.4439 123.362 20.7159 123.886 20.1341C124.424 19.5442 125.06 19.146 125.795 18.9395C126.532 18.7226 127.307 18.7054 128.119 18.8878C128.931 19.0703 129.623 19.4173 130.197 19.9289C130.773 20.4301 131.174 21.0559 131.399 21.8061C131.634 22.5587 131.652 23.3773 131.453 24.2619C131.255 25.1465 130.881 25.8826 130.334 26.4702C129.799 27.0497 129.158 27.4467 128.41 27.6612C127.662 27.8758 126.882 27.8918 126.07 27.7094ZM126.351 26.4605C126.861 26.5752 127.367 26.5631 127.868 26.4243C128.369 26.2855 128.809 26.0072 129.187 25.5893C129.576 25.1737 129.847 24.6225 130.002 23.9356C130.156 23.2487 130.152 22.6355 129.989 22.096C129.826 21.5565 129.551 21.1231 129.166 20.7959C128.783 20.4583 128.336 20.2322 127.826 20.1176C127.306 20.0006 126.8 20.0127 126.309 20.1538C125.831 20.2869 125.408 20.5635 125.04 20.9838C124.672 21.404 124.411 21.9576 124.257 22.6444C124.1 23.3417 124.093 23.9578 124.235 24.4926C124.388 25.0298 124.65 25.4661 125.023 25.8013C125.399 26.1262 125.841 26.3459 126.351 26.4605ZM143.226 25.5303C143.607 25.6816 143.93 25.9237 144.194 26.2563C144.469 26.5914 144.656 26.9725 144.757 27.3996C144.868 27.8291 144.875 28.2624 144.777 28.6995C144.653 29.2511 144.4 29.7191 144.018 30.1034C143.639 30.4773 143.15 30.7336 142.55 30.8721C141.963 31.0026 141.305 30.986 140.577 30.8222L136.518 29.91L138.964 19.0294L142.866 19.9066C143.605 20.0727 144.207 20.3391 144.671 20.7058C145.138 21.0621 145.454 21.4776 145.621 21.9524C145.787 22.4272 145.812 22.9247 145.695 23.4451C145.55 24.0903 145.253 24.5865 144.803 24.9337C144.366 25.2728 143.84 25.4716 143.226 25.5303ZM139.328 24.0475L141.717 24.5843C142.383 24.734 142.933 24.6937 143.367 24.4634C143.802 24.233 144.081 23.8421 144.205 23.2905C144.329 22.7389 144.244 22.2661 143.95 21.872C143.656 21.4779 143.165 21.2037 142.478 21.0493L140.121 20.5195L139.328 24.0475ZM140.715 29.6234C141.423 29.7824 142.012 29.7399 142.482 29.4958C142.953 29.2516 143.254 28.8329 143.388 28.2397C143.523 27.6361 143.422 27.1158 143.083 26.6788C142.746 26.2314 142.229 25.9294 141.531 25.7727L139.065 25.2183L138.202 29.0585L140.715 29.6234ZM149.517 32.9464C148.799 32.7851 148.182 32.5151 147.666 32.1367C147.162 31.7502 146.799 31.297 146.577 30.777C146.358 30.2466 146.309 29.6836 146.432 29.088L147.946 29.4284C147.884 29.95 147.995 30.4287 148.28 30.8644C148.577 31.292 149.08 31.5854 149.787 31.7444C150.464 31.8965 151.032 31.8493 151.492 31.6028C151.965 31.3482 152.261 30.9556 152.38 30.4248C152.473 30.0085 152.435 29.6446 152.264 29.3329C152.094 29.0213 151.852 28.7592 151.539 28.5468C151.226 28.3343 150.796 28.0845 150.248 27.7974C149.572 27.4487 149.037 27.1315 148.642 26.846C148.257 26.5627 147.953 26.1883 147.73 25.7227C147.519 25.249 147.49 24.6739 147.642 23.9974C147.775 23.4042 148.044 22.9126 148.449 22.5225C148.854 22.1324 149.355 21.8733 149.952 21.7452C150.56 21.6194 151.218 21.636 151.925 21.7951C152.945 22.0243 153.72 22.4664 154.251 23.1214C154.792 23.7787 155.009 24.5382 154.903 25.3998L153.342 25.049C153.384 24.621 153.247 24.2076 152.932 23.8089C152.62 23.3997 152.146 23.1238 151.511 22.9811C150.918 22.8478 150.399 22.8951 149.954 23.1231C149.512 23.3407 149.228 23.7253 149.104 24.2769C149.015 24.6724 149.052 25.0195 149.215 25.3184C149.387 25.6196 149.62 25.8742 149.912 26.082C150.217 26.2817 150.647 26.5315 151.203 26.8313C151.877 27.1905 152.41 27.518 152.803 27.814C153.198 28.0996 153.506 28.4804 153.727 28.9564C153.95 29.422 153.984 29.9983 153.83 30.6852C153.711 31.2159 153.458 31.6839 153.072 32.089C152.686 32.4942 152.184 32.7805 151.567 32.9479C150.95 33.1154 150.267 33.1149 149.517 32.9464ZM155.104 32.8902C156.664 32.1258 157.895 31.4895 158.797 30.9815C159.7 30.463 160.49 29.8917 161.166 29.2674C161.855 28.635 162.28 27.9598 162.441 27.2417C162.593 26.5653 162.546 25.9971 162.3 25.5372C162.066 25.0692 161.585 24.7533 160.856 24.5896C160.149 24.4305 159.547 24.5303 159.051 24.8889C158.568 25.2395 158.227 25.7807 158.03 26.5126L156.656 26.2038C156.96 25.0476 157.516 24.2269 158.325 23.7418C159.133 23.2566 160.063 23.1322 161.114 23.3685C162.186 23.6094 162.968 24.0966 163.459 24.8302C163.96 25.566 164.094 26.4543 163.86 27.495C163.666 28.3588 163.217 29.1433 162.511 29.8485C161.819 30.5457 161.075 31.1328 160.279 31.6098C159.485 32.0765 158.486 32.6063 157.281 33.1992L162.651 34.4062L162.385 35.5926L154.876 33.9049L155.104 32.8902ZM171.82 37.9592C171.102 37.7978 170.485 37.5279 169.969 37.1495C169.465 36.763 169.102 36.3098 168.88 35.7898C168.661 35.2593 168.612 34.6964 168.735 34.1008L170.249 34.4412C170.187 34.9628 170.298 35.4415 170.583 35.8772C170.88 36.3048 171.383 36.5982 172.09 36.7572C172.767 36.9093 173.335 36.862 173.795 36.6156C174.268 36.361 174.564 35.9684 174.683 35.4376C174.776 35.0213 174.738 34.6574 174.567 34.3457C174.397 34.0341 174.155 33.772 173.842 33.5595C173.529 33.3471 173.099 33.0973 172.551 32.8102C171.875 32.4615 171.34 32.1443 170.945 31.8587C170.56 31.5755 170.256 31.2011 170.033 30.7354C169.822 30.2617 169.793 29.6867 169.945 29.0102C170.078 28.417 170.347 27.9254 170.752 27.5353C171.157 27.1452 171.658 26.8861 172.255 26.758C172.863 26.6322 173.521 26.6488 174.228 26.8078C175.248 27.0371 176.023 27.4792 176.554 28.1341C177.095 28.7914 177.312 29.5509 177.206 30.4126L175.645 30.0618C175.687 29.6338 175.55 29.2204 175.235 28.8217C174.923 28.4125 174.449 28.1366 173.814 27.9939C173.221 27.8606 172.702 27.9079 172.257 28.1359C171.814 28.3535 171.531 28.7381 171.407 29.2897C171.318 29.6851 171.355 30.0323 171.518 30.3312C171.69 30.6324 171.923 30.8869 172.215 31.0948C172.52 31.2945 172.95 31.5443 173.506 31.8441C174.18 32.2032 174.713 32.5308 175.106 32.8268C175.501 33.1123 175.809 33.4931 176.03 33.9692C176.253 34.4348 176.287 35.0111 176.133 35.6979C176.014 36.2287 175.761 36.6967 175.375 37.1018C174.988 37.507 174.487 37.7933 173.87 37.9607C173.253 38.1281 172.57 38.1276 171.82 37.9592ZM186.17 25.6216L177.991 42.0192L176.586 41.7034L184.749 25.3023L186.17 25.6216ZM191.956 39.8284L187.211 38.7617L185.793 40.9849L184.294 40.6481L190.66 30.7141L192.299 31.0825L193.785 42.7813L192.287 42.4445L191.956 39.8284ZM191.81 38.582L191.078 32.6449L187.876 37.6978L191.81 38.582ZM86.5179 32.5785L79.8905 41.7812L78.4544 41.4584L85.1126 32.4102L79.0869 31.0559L79.3606 29.8383L86.76 31.5014L86.5179 32.5785ZM87.6762 33.0356L87.9674 31.74L90.9022 32.3996L88.3655 43.686L86.9293 43.3632L89.1748 33.3725L87.6762 33.0356ZM91.4714 44.4825C91.2009 44.4217 90.993 44.2766 90.8477 44.0471C90.7025 43.8177 90.6603 43.5677 90.7211 43.2971C90.7819 43.0265 90.9271 42.8186 91.1565 42.6734C91.3859 42.5282 91.6359 42.486 91.9065 42.5468C92.1667 42.6053 92.3642 42.748 92.499 42.9751C92.6442 43.2046 92.6864 43.4546 92.6256 43.7252C92.5648 43.9957 92.4197 44.2036 92.1902 44.3489C91.9712 44.4964 91.7316 44.541 91.4714 44.4825ZM95.3779 39.2108C95.7802 37.4208 96.3851 36.0918 97.1924 35.2237C98.0021 34.3452 99.1354 34.0697 100.592 34.3971C102.039 34.7223 102.94 35.4551 103.296 36.5955C103.654 37.7256 103.632 39.1856 103.23 40.9757C102.821 42.7969 102.211 44.1468 101.401 45.0252C100.592 45.9037 99.4637 46.1804 98.0171 45.8553C96.5601 45.5278 95.6537 44.7939 95.2978 43.6534C94.9419 42.5129 94.9686 41.0321 95.3779 39.2108ZM101.825 40.6599C102.029 39.7545 102.138 38.9755 102.154 38.323C102.182 37.6625 102.052 37.0976 101.764 36.6283C101.486 36.1614 100.998 35.8495 100.301 35.6928C99.5935 35.5338 99.0091 35.6047 98.5479 35.9055C98.0971 36.2087 97.7379 36.6637 97.4703 37.2704C97.2155 37.8691 96.9864 38.6212 96.7829 39.5266C96.5723 40.4632 96.453 41.2618 96.4248 41.9224C96.407 42.5853 96.5369 43.1502 96.8146 43.6171C97.1027 44.0864 97.6006 44.4006 98.3083 44.5596C99.0056 44.7163 99.5796 44.6431 100.03 44.3399C100.492 44.039 100.851 43.5841 101.108 42.975C101.376 42.3682 101.615 41.5965 101.825 40.6599ZM103.97 45.9961C105.53 45.2317 106.761 44.5954 107.662 44.0874C108.566 43.5689 109.356 42.9975 110.032 42.3733C110.721 41.7409 111.146 41.0657 111.307 40.3476C111.459 39.6711 111.412 39.103 111.166 38.643C110.932 38.1751 110.451 37.8592 109.722 37.6955C109.015 37.5364 108.413 37.6362 107.917 37.9948C107.433 38.3454 107.093 38.8866 106.896 39.6185L105.522 39.3097C105.826 38.1535 106.382 37.3328 107.191 36.8477C107.999 36.3625 108.929 36.2381 109.98 36.4743C111.052 36.7153 111.834 37.2025 112.325 37.936C112.826 38.6719 112.96 39.5602 112.726 40.6009C112.532 41.4647 112.082 42.2492 111.377 42.9544C110.685 43.6515 109.941 44.2386 109.145 44.7157C108.351 45.1824 107.352 45.7122 106.147 46.3051L111.517 47.512L111.251 48.6984L103.742 47.0108L103.97 45.9961ZM122.099 40.5757L115.472 49.7784L114.035 49.4556L120.694 40.4074L114.668 39.0531L114.942 37.8355L122.341 39.4985L122.099 40.5757ZM122.052 51.3558C121.782 51.295 121.574 51.1499 121.429 50.9204C121.283 50.691 121.241 50.441 121.302 50.1704C121.363 49.8998 121.508 49.6919 121.737 49.5467C121.967 49.4015 122.217 49.3593 122.487 49.4201C122.748 49.4786 122.945 49.6214 123.08 49.8484C123.225 50.0779 123.267 50.3279 123.206 50.5985C123.146 50.869 123.001 51.0769 122.771 51.2222C122.552 51.3697 122.312 51.4143 122.052 51.3558ZM128.044 46.438C127.513 46.078 127.14 45.6444 126.926 45.1372C126.712 44.6299 126.675 44.0641 126.816 43.4396C126.942 42.8777 127.196 42.4045 127.577 42.0201C127.961 41.6254 128.458 41.3599 129.068 41.2237C129.691 41.0794 130.398 41.0962 131.189 41.274C131.98 41.4517 132.621 41.7379 133.111 42.1324C133.615 42.5189 133.956 42.9727 134.134 43.4938C134.325 44.0068 134.357 44.5442 134.231 45.1062C134.095 45.7098 133.814 46.2043 133.389 46.5897C132.966 46.9647 132.448 47.1983 131.837 47.2906C132.438 47.6333 132.87 48.0966 133.132 48.6803C133.407 49.256 133.466 49.8925 133.31 50.5898C133.158 51.2662 132.858 51.822 132.41 52.2571C131.965 52.6818 131.404 52.9656 130.726 53.1086C130.062 53.2435 129.334 53.2221 128.543 53.0443C127.752 52.8665 127.086 52.5745 126.543 52.1683C126.013 51.754 125.637 51.2596 125.417 50.6852C125.198 50.1004 125.165 49.4698 125.317 48.7934C125.474 48.0961 125.796 47.5398 126.283 47.1244C126.769 46.7091 127.357 46.4803 128.044 46.438ZM132.818 44.9692C132.961 44.3344 132.863 43.7984 132.524 43.3615C132.185 42.9245 131.651 42.6241 130.922 42.4604C130.204 42.299 129.598 42.3432 129.105 42.5931C128.611 42.8429 128.292 43.2905 128.147 43.9357C128.016 44.5185 128.124 45.0348 128.471 45.4845C128.829 45.9366 129.351 46.2398 130.038 46.3942C130.735 46.5509 131.337 46.5003 131.843 46.2424C132.362 45.9764 132.687 45.552 132.818 44.9692ZM129.792 47.487C129.022 47.3139 128.352 47.3545 127.781 47.6088C127.212 47.8527 126.847 48.3337 126.686 49.0518C126.536 49.7178 126.65 50.3064 127.027 50.8175C127.414 51.331 128.009 51.6778 128.81 51.8579C129.611 52.038 130.292 51.9778 130.851 51.6772C131.411 51.3765 131.766 50.8932 131.915 50.2272C132.072 49.5299 131.952 48.9453 131.555 48.4735C131.16 47.9912 130.573 47.6624 129.792 47.487ZM142.736 46.8704C142.767 45.6638 142.184 44.926 140.987 44.657C140.061 44.4488 139.288 44.6523 138.669 45.2674C138.052 45.8722 137.565 46.9927 137.208 48.629C137.569 48.1416 138.059 47.809 138.679 47.6312C139.311 47.4452 139.971 47.4295 140.657 47.5839C141.729 47.8248 142.508 48.3496 142.993 49.1584C143.489 49.9694 143.604 50.963 143.34 52.139C143.181 52.8466 142.898 53.4499 142.49 53.9487C142.093 54.4499 141.577 54.8038 140.94 55.0105C140.313 55.2196 139.605 55.2352 138.814 55.0575C137.742 54.8165 136.958 54.3889 136.462 53.7745C135.966 53.1601 135.693 52.4045 135.643 51.5078C135.593 50.611 135.707 49.5434 135.986 48.3049C136.844 44.4856 138.605 42.8753 141.27 43.4741C142.289 43.7033 143.029 44.1592 143.488 44.8418C143.946 45.5243 144.133 46.2988 144.048 47.1651L142.736 46.8704ZM140.091 48.7192C139.643 48.6186 139.201 48.6176 138.763 48.716C138.328 48.804 137.943 49.0073 137.609 49.3258C137.288 49.6363 137.068 50.0569 136.948 50.5876C136.771 51.3786 136.855 52.0753 137.2 52.6777C137.548 53.2698 138.149 53.6617 139.002 53.8535C139.731 54.0173 140.359 53.9233 140.886 53.5717C141.426 53.212 141.782 52.6472 141.956 51.877C142.138 51.0653 142.073 50.3837 141.759 49.8322C141.448 49.2703 140.892 48.8993 140.091 48.7192ZM152.645 49.0976C152.676 47.8909 152.093 47.1531 150.896 46.8841C149.97 46.6759 149.197 46.8794 148.578 47.4946C147.961 48.0993 147.474 49.2198 147.117 50.8561C147.478 50.3687 147.969 50.0361 148.588 49.8583C149.22 49.6724 149.88 49.6566 150.566 49.811C151.638 50.0519 152.417 50.5768 152.902 51.3855C153.398 52.1966 153.513 53.1901 153.249 54.3661C153.09 55.0738 152.807 55.677 152.399 56.1759C152.002 56.677 151.486 57.031 150.849 57.2377C150.222 57.4467 149.514 57.4624 148.723 57.2846C147.651 57.0437 146.867 56.616 146.371 56.0016C145.875 55.3872 145.602 54.6317 145.552 53.7349C145.502 52.8381 145.616 51.7705 145.895 50.5321C146.753 46.7127 148.514 45.1024 151.179 45.7012C152.198 45.9304 152.938 46.3863 153.397 47.0689C153.855 47.7515 154.042 48.5259 153.957 49.3923L152.645 49.0976ZM150 50.9464C149.552 50.8458 149.11 50.8447 148.672 50.9432C148.237 51.0312 147.852 51.2345 147.518 51.553C147.197 51.8634 146.977 52.284 146.857 52.8148C146.68 53.6057 146.764 54.3024 147.109 54.9049C147.457 55.4969 148.058 55.8889 148.911 56.0807C149.64 56.2444 150.268 56.1505 150.795 55.7989C151.335 55.4392 151.692 54.8743 151.865 54.1042C152.047 53.2924 151.982 52.6108 151.668 52.0593C151.357 51.4975 150.801 51.1265 150 50.9464ZM163.177 45.0526L154.998 61.4501L153.593 61.1344L161.757 44.7333L163.177 45.0526ZM163.049 54.4205C163.451 52.6305 164.056 51.3014 164.864 50.4333C165.673 49.5549 166.807 49.2793 168.264 49.6068C169.71 49.9319 170.611 50.6647 170.967 51.8052C171.326 52.9353 171.304 54.3953 170.901 56.1853C170.492 58.0066 169.882 59.3564 169.073 60.2349C168.263 61.1134 167.135 61.3901 165.688 61.065C164.231 60.7375 163.325 60.0035 162.969 58.8631C162.613 57.7226 162.64 56.2417 163.049 54.4205ZM169.496 55.8695C169.7 54.9641 169.809 54.1852 169.825 53.5327C169.853 52.8721 169.723 52.3072 169.435 51.838C169.157 51.371 168.67 51.0592 167.972 50.9025C167.265 50.7434 166.68 50.8143 166.219 51.1152C165.768 51.4184 165.409 51.8734 165.142 52.4801C164.887 53.0788 164.658 53.8309 164.454 54.7363C164.244 55.6729 164.124 56.4715 164.096 57.1321C164.078 57.795 164.208 58.3599 164.486 58.8268C164.774 59.2961 165.272 59.6102 165.979 59.7693C166.677 59.926 167.251 59.8528 167.702 59.5496C168.163 59.2487 168.522 58.7937 168.779 58.1846C169.047 57.5779 169.286 56.8062 169.496 55.8695ZM172.851 56.6237C173.254 54.8336 173.859 53.5046 174.666 52.6365C175.476 51.758 176.609 51.4825 178.066 51.81C179.513 52.1351 180.414 52.8679 180.77 54.0084C181.128 55.1384 181.106 56.5985 180.704 58.3885C180.294 60.2097 179.685 61.5596 178.875 62.4381C178.065 63.3166 176.937 63.5933 175.491 63.2681C174.034 62.9407 173.127 62.2067 172.771 61.0662C172.415 59.9257 172.442 58.4449 172.851 56.6237ZM179.299 58.0727C179.502 57.1673 179.612 56.3883 179.627 55.7359C179.655 55.0753 179.525 54.5104 179.237 54.0411C178.959 53.5742 178.472 53.2624 177.775 53.1056C177.067 52.9466 176.483 53.0175 176.021 53.3183C175.571 53.6215 175.211 54.0765 174.944 54.6833C174.689 55.282 174.46 56.034 174.256 56.9394C174.046 57.8761 173.926 58.6747 173.898 59.3352C173.88 59.9981 174.01 60.563 174.288 61.03C174.576 61.4992 175.074 61.8134 175.782 61.9724C176.479 62.1292 177.053 62.0559 177.504 61.7527C177.965 61.4519 178.324 60.9969 178.581 60.3878C178.849 59.781 179.088 59.0093 179.299 58.0727ZM182.654 58.8268C183.056 57.0368 183.661 55.7078 184.468 54.8397C185.278 53.9612 186.411 53.6857 187.868 54.0131C189.315 54.3383 190.216 55.0711 190.572 56.2115C190.93 57.3416 190.908 58.8016 190.506 60.5916C190.097 62.4129 189.487 63.7627 188.677 64.6412C187.868 65.5197 186.74 65.7964 185.293 65.4713C183.836 65.1438 182.93 64.4098 182.574 63.2694C182.218 62.1289 182.244 60.648 182.654 58.8268ZM189.101 60.2759C189.304 59.3705 189.414 58.5915 189.429 57.939C189.458 57.2784 189.328 56.7135 189.04 56.2443C188.762 55.7773 188.274 55.4655 187.577 55.3088C186.869 55.1497 186.285 55.2206 185.824 55.5215C185.373 55.8247 185.014 56.2797 184.746 56.8864C184.491 57.4851 184.262 58.2372 184.059 59.1426C183.848 60.0792 183.729 60.8778 183.701 61.5384C183.683 62.2013 183.813 62.7662 184.09 63.2331C184.379 63.7024 184.876 64.0165 185.584 64.1756C186.281 64.3323 186.855 64.2591 187.306 63.9559C187.767 63.655 188.127 63.2001 188.384 62.591C188.651 61.9842 188.89 61.2125 189.101 60.2759ZM193.028 58.3379C193.316 57.3969 193.854 56.7306 194.642 56.3391C195.43 55.9477 196.354 55.8712 197.416 56.1098C198.123 56.2689 198.703 56.5358 199.154 56.9106C199.619 57.2773 199.932 57.7084 200.094 58.204C200.266 58.7019 200.29 59.2267 200.166 59.7782C200.021 60.4235 199.709 60.9382 199.229 61.3223C198.759 61.7087 198.213 61.9029 197.589 61.9049L197.572 61.9829C198.211 62.3015 198.673 62.7498 198.958 63.3278C199.244 63.9058 199.298 64.5903 199.12 65.3812C198.987 65.9744 198.731 66.48 198.353 66.8979C197.977 67.3054 197.488 67.5836 196.886 67.7326C196.284 67.8815 195.603 67.8706 194.844 67.6999C193.74 67.4519 192.899 66.9622 192.32 66.2308C191.744 65.4889 191.533 64.5779 191.688 63.4977L193.062 63.8064C192.995 64.4472 193.135 65.0145 193.483 65.5082C193.831 66.0019 194.37 66.3306 195.098 66.4943C195.827 66.6581 196.42 66.5947 196.879 66.3043C197.351 66.0058 197.654 65.5547 197.79 64.9511C197.966 64.1706 197.832 63.5501 197.388 63.0897C196.945 62.6293 196.198 62.281 195.147 62.0448L194.788 61.9641L195.055 60.7777L195.429 60.8619C196.389 61.0667 197.147 61.0731 197.704 60.8812C198.264 60.679 198.616 60.2552 198.761 59.61C198.885 59.0584 198.802 58.5752 198.513 58.1603C198.234 57.7477 197.761 57.4666 197.095 57.3169C196.45 57.1719 195.892 57.2214 195.422 57.4656C194.952 57.7097 194.617 58.1046 194.418 58.6502L193.028 58.3379ZM207.941 63.92L207.671 65.122L201.442 63.7221L201.713 62.5201L207.941 63.92ZM210.247 65.0285C210.649 63.2385 211.254 61.9095 212.061 61.0414C212.871 60.1629 214.004 59.8874 215.461 60.2149C216.908 60.54 217.809 61.2728 218.165 62.4133C218.523 63.5433 218.501 65.0034 218.099 66.7934C217.689 68.6146 217.08 69.9645 216.27 70.843C215.461 71.7215 214.332 71.9981 212.886 71.673C211.429 71.3455 210.522 70.6116 210.167 69.4711C209.811 68.3306 209.837 66.8498 210.247 65.0285ZM216.694 66.4776C216.897 65.5722 217.007 64.7932 217.022 64.1407C217.05 63.4802 216.921 62.9153 216.632 62.446C216.355 61.9791 215.867 61.6673 215.17 61.5105C214.462 61.3515 213.878 61.4224 213.417 61.7232C212.966 62.0264 212.607 62.4814 212.339 63.0882C212.084 63.6869 211.855 64.4389 211.652 65.3443C211.441 66.281 211.322 67.0796 211.294 67.7401C211.276 68.403 211.406 68.9679 211.683 69.4348C211.971 69.9041 212.469 70.2183 213.177 70.3773C213.874 70.5341 214.448 70.4608 214.899 70.1576C215.36 69.8568 215.72 69.4018 215.977 68.7927C216.244 68.1859 216.483 67.4142 216.694 66.4776ZM218.976 70.4015L219.218 69.3244L226.402 62.9692L228.104 63.3516L226.434 70.7822L227.995 71.1331L227.718 72.3663L226.157 72.0155L225.592 74.5288L224.187 74.213L224.752 71.6997L218.976 70.4015ZM226.428 64.5329L220.892 69.5367L225.091 70.4805L226.428 64.5329Z" fill="black"/>
</svg>
