<svg width="65" height="37" viewBox="0 0 65 37" fill="none" xmlns="http://www.w3.org/2000/svg">
<path d="M40.4368 3.68732H39.586V5.1528H40.4503C40.9364 5.1528 41.5306 5.01773 41.5306 4.39642C41.5306 3.86291 41.0984 3.69407 40.4435 3.69407M40.3355 1.22911H39.5793V2.55276H40.4098C40.9837 2.55276 41.3145 2.30964 41.3145 1.85717C41.3145 1.40469 40.9837 1.23586 40.3355 1.23586M40.6326 6.40216H38.0939V0H40.6326C41.6183 0 42.7999 0.351174 42.7999 1.64781C42.7999 2.35016 42.3745 2.82289 41.7534 3.03225V3.05251C42.4826 3.18082 43.0565 3.70083 43.0565 4.54499C43.0565 5.93618 41.8411 6.40892 40.6258 6.40892" fill="#3333CC"/>
<path d="M46.2839 4.43693H46.0948C45.4467 4.43693 44.7175 4.51797 44.7175 5.05148C44.7175 5.3959 45.0618 5.51071 45.3589 5.51071C45.9531 5.51071 46.2839 5.14603 46.2839 4.5855V4.43018V4.43693ZM43.5764 2.51223C44.0963 2.01248 44.8458 1.75586 45.575 1.75586C47.0739 1.75586 47.6343 2.49872 47.6343 4.13303V6.40215H46.2839V5.92266H46.2569C46.0341 6.2941 45.5209 6.5102 44.9875 6.5102C44.2786 6.5102 43.3604 6.15903 43.3604 5.09876C43.3604 3.79536 44.9335 3.57926 46.2366 3.57926V3.50497C46.2366 3.05925 45.8855 2.85665 45.4264 2.85665C45.001 2.85665 44.5892 3.066 44.3191 3.31588L43.5764 2.51223Z" fill="#3333CC"/>
<path d="M51.3073 6.40216V3.94394C51.3073 3.44419 51.1722 2.99847 50.6388 2.99847C50.1054 2.99847 49.8489 3.45095 49.8489 3.9642V6.40216H48.3635V1.89768H49.7949V2.51899H49.8151C50.0244 2.12054 50.5376 1.76937 51.1587 1.76937C52.3606 1.76937 52.7927 2.70808 52.7927 3.61303V6.3954H51.3073V6.40216Z" fill="#3333CC"/>
<path d="M56.6345 3.3564C56.4724 3.14029 56.1484 2.99847 55.8513 2.99847C55.2301 2.99847 54.8182 3.53198 54.8182 4.15329C54.8182 4.7746 55.2234 5.30136 55.8715 5.30136C56.1686 5.30136 56.4927 5.18655 56.6682 4.96369L57.4852 5.96994C57.1139 6.33462 56.486 6.55072 55.831 6.55072C54.4199 6.55072 53.3193 5.64578 53.3193 4.15329C53.3193 2.6608 54.4266 1.75586 55.8175 1.75586C56.4589 1.75586 57.1274 1.99898 57.4785 2.36366L56.6277 3.3564H56.6345Z" fill="#3333CC"/>
<path d="M59.9698 2.98496C59.2744 2.98496 58.9166 3.55224 58.9166 4.13303C58.9166 4.71382 59.2879 5.30136 59.9766 5.30136C60.6653 5.30136 61.0366 4.71382 61.0366 4.13303C61.0366 3.55224 60.6585 2.98496 59.9698 2.98496ZM59.9698 6.54397C58.6195 6.54397 57.4852 5.60526 57.4852 4.13303C57.4852 2.6608 58.6195 1.75586 59.9698 1.75586C61.3202 1.75586 62.4613 2.6608 62.4613 4.13303C62.4613 5.60526 61.327 6.54397 59.9698 6.54397Z" fill="#3333CC"/>
<path d="M12.3154 31.1531C8.52083 31.1666 5.65129 28.1276 5.63779 24.0891C5.62429 20.0506 8.48032 16.9981 12.2749 16.9846C16.0491 16.9711 18.8984 20.0101 18.9119 24.0486C18.9254 28.0871 16.0896 31.1396 12.3154 31.1531ZM12.7272 11.2173C10.4451 11.224 8.4128 11.8588 6.68432 13.1015L5.60403 13.8781L5.57027 1.76937L0 3.44419V36.3735H5.67155V34.3069L6.75184 35.0768C8.48707 36.3059 10.5194 36.9272 12.8015 36.9205C19.2698 36.9002 24.5092 31.1194 24.4889 24.0351C24.4687 16.9509 19.1887 11.2038 12.7272 11.224" fill="#3333CC"/>
<path d="M36.2506 21.4148L35.6227 21.1784C32.9827 20.1992 31.8079 19.5306 31.8079 18.1597C31.8079 16.6672 33.2731 16.1405 34.6504 16.1405C36.0278 16.1405 37.7563 16.5997 37.7563 18.781V19.9493H43.3536V18.781C43.3536 14.0267 39.7751 10.704 34.6504 10.704C29.1274 10.704 26.2444 14.4521 26.2444 18.1597C26.2444 23.4408 30.5858 25.0008 34.0765 26.257L34.4344 26.3853C37.1284 27.3915 38.418 28.0804 38.418 29.3027C38.418 30.8897 36.6557 31.457 35.1433 31.457C33.3676 31.457 31.2407 30.9438 31.2407 28.4856V27.2362H25.6367V28.4856C25.6367 33.5303 29.4583 36.9205 35.1366 36.9205C40.2747 36.9205 44.0085 33.7194 44.0085 29.3027C44.0085 24.2917 39.7008 22.6912 36.2439 21.4081" fill="#3333CC"/>
<path d="M65 33.6789C65 34.0976 64.6624 34.4352 64.2506 34.4352C63.8387 34.4352 63.4944 34.0976 63.4944 33.6789C63.4944 33.2602 63.8319 32.9225 64.2506 32.9225C64.6692 32.9225 65 33.2602 65 33.6789ZM56.567 33.1454H62.6099V30.964H53.981L57.7283 27.297C60.7666 24.339 62.1845 21.6782 62.1845 18.9363C62.1845 14.8438 59.3015 10.704 53.792 10.704C49.6733 10.704 45.2374 13.2906 45.2374 18.9701V19.9493H50.7739V18.9701C50.7739 17.0724 51.8002 16.1134 53.8257 16.1134C55.1761 16.1134 56.621 16.8563 56.621 18.9363C56.621 20.6044 54.9735 22.4278 53.7244 23.6569L48.2419 29.1474C46.3177 31.0721 45.2441 33.6654 45.2441 36.3667H62.6234V34.2124H56.5805C56.2834 34.2124 56.0403 33.9693 56.0403 33.6721C56.0403 33.375 56.2834 33.1319 56.5805 33.1319" fill="#3333CC"/>
</svg>
